<mxfile host="app.diagrams.net" modified="2023-07-08T01:08:53.479Z" agent="Mozilla/5.0 (Windows NT 10.0; Win64; x64) AppleWebKit/537.36 (KHTML, like Gecko) Chrome/114.0.0.0 Safari/537.36" etag="_v8OOm8E3_rCoyIs3R6O" version="21.6.1" type="device">
  <diagram name="Page-1" id="K-Z6VF7usLh8He0_qhXx">
    <mxGraphModel dx="1232" dy="1124" grid="1" gridSize="10" guides="1" tooltips="1" connect="1" arrows="1" fold="1" page="1" pageScale="1" pageWidth="1100" pageHeight="850" math="0" shadow="0">
      <root>
        <mxCell id="0" />
        <mxCell id="1" parent="0" />
        <mxCell id="onRPUo4Irr8RPfd1ufVu-1" value="Index.php" style="rounded=1;whiteSpace=wrap;html=1;" vertex="1" parent="1">
          <mxGeometry x="480" y="30" width="140" height="60" as="geometry" />
        </mxCell>
        <mxCell id="onRPUo4Irr8RPfd1ufVu-6" value="includes/config.php" style="rounded=0;whiteSpace=wrap;html=1;" vertex="1" parent="1">
          <mxGeometry x="490" y="130" width="120" height="60" as="geometry" />
        </mxCell>
        <mxCell id="onRPUo4Irr8RPfd1ufVu-7" value="controller/$page.php" style="rounded=0;whiteSpace=wrap;html=1;" vertex="1" parent="1">
          <mxGeometry x="490" y="210" width="120" height="60" as="geometry" />
        </mxCell>
        <mxCell id="onRPUo4Irr8RPfd1ufVu-8" value="viewer/$page.php" style="rounded=0;whiteSpace=wrap;html=1;" vertex="1" parent="1">
          <mxGeometry x="490" y="290" width="120" height="60" as="geometry" />
        </mxCell>
      </root>
    </mxGraphModel>
  </diagram>
</mxfile>
